<svg width="24" height="24" viewBox="0 0 24 24" fill="none" xmlns="http://www.w3.org/2000/svg">
    <path d="M20.843 17.145a11.957 11.957 0 0 1-1.183 2.127c-.622.886-1.131 1.5-1.524 1.841-.608.56-1.26.846-1.958.862-.501 0-1.106-.142-1.809-.432-.706-.287-1.354-.43-1.947-.43-.622 0-1.29.143-2.003.43-.714.29-1.29.44-1.73.455-.67.029-1.337-.266-2.003-.885-.425-.37-.956-1.006-1.593-1.907-.683-.961-1.245-2.076-1.685-3.347-.472-1.373-.708-2.703-.708-3.99 0-1.474.319-2.746.957-3.811A5.612 5.612 0 0 1 5.66 6.03a5.39 5.39 0 0 1 2.71-.764c.53 0 1.228.164 2.095.487.863.325 1.418.489 1.661.489.182 0 .799-.192 1.843-.576.988-.355 1.822-.502 2.505-.444 1.85.149 3.241.879 4.166 2.193-1.655 1.003-2.474 2.408-2.458 4.21.015 1.404.524 2.572 1.525 3.5.454.43.96.763 1.524 1-.122.354-.251.693-.388 1.019zM16.598.44c0 1.1-.402 2.128-1.204 3.079-.966 1.13-2.136 1.783-3.404 1.68a3.417 3.417 0 0 1-.026-.417c0-1.056.46-2.186 1.277-3.11A4.914 4.914 0 0 1 14.796.504C15.423.198 16.015.03 16.573 0c.017.147.023.294.023.44z" fill="#000"/>
</svg>
