<svg width="20" height="20" viewBox="0 0 20 20" fill="none" xmlns="http://www.w3.org/2000/svg">
    <path d="M3.333 6.664a1.912 1.912 0 0 1-.325-.03 1.667 1.667 0 0 1-1.31-1.309c-.031-.16-.031-.354-.031-.742 0-.387 0-.58.032-.741a1.667 1.667 0 0 1 1.31-1.31c.16-.032.354-.032.741-.032h12.5c.387 0 .58 0 .742.032a1.667 1.667 0 0 1 1.31 1.31c.031.16.031.354.031.741 0 .388 0 .581-.032.742a1.667 1.667 0 0 1-1.31 1.31c-.088.017-.188.025-.324.029m-8.334 4.17h3.334M3.333 6.666h13.334V13.5c0 1.4 0 2.1-.273 2.635a2.5 2.5 0 0 1-1.092 1.092c-.535.273-1.235.273-2.635.273H7.333c-1.4 0-2.1 0-2.635-.273a2.5 2.5 0 0 1-1.092-1.092c-.273-.535-.273-1.235-.273-2.635V6.667z" stroke="#475467" stroke-width="1.667" stroke-linecap="round" stroke-linejoin="round"/>
</svg>
