<svg width="21" height="20" viewBox="0 0 21 20" fill="none" xmlns="http://www.w3.org/2000/svg">
    <path fill-rule="evenodd" clip-rule="evenodd" d="M10.333 0c-5.52 0-10 4.48-10 10s4.48 10 10 10c5.51 0 10-4.48 10-10s-4.49-10-10-10zm6.606 4.61a8.503 8.503 0 0 1 1.93 5.314c-.282-.054-3.102-.629-5.943-.271-.066-.141-.12-.293-.185-.445a25.513 25.513 0 0 0-.564-1.236c3.146-1.28 4.577-3.124 4.762-3.362zm-6.606-3.135c2.17 0 4.154.814 5.662 2.148-.152.216-1.443 1.941-4.48 3.08-1.399-2.57-2.95-4.675-3.188-5a8.686 8.686 0 0 1 2.006-.228zM6.7 2.278a53.901 53.901 0 0 1 3.167 4.935c-3.991 1.062-7.516 1.04-7.896 1.04A8.581 8.581 0 0 1 6.7 2.279zM1.787 10.01v-.26c.369.01 4.512.065 8.774-1.215.25.477.477.965.694 1.453-.108.033-.228.065-.336.098-4.403 1.42-6.746 5.303-6.941 5.629a8.521 8.521 0 0 1-2.191-5.705zm8.546 8.536a8.482 8.482 0 0 1-5.238-1.8c.152-.315 1.887-3.656 6.703-5.337.021-.01.032-.01.054-.022a35.304 35.304 0 0 1 1.822 6.475 8.4 8.4 0 0 1-3.34.684zm4.762-1.465c-.087-.52-.543-3.015-1.66-6.084 2.68-.423 5.022.271 5.315.369a8.468 8.468 0 0 1-3.655 5.715z" fill="#98A2B3"/>
</svg>
