<?xml version="1.0" encoding="UTF-8" standalone="no" ?>
<!DOCTYPE svg PUBLIC "-//W3C//DTD SVG 1.1//EN" "http://www.w3.org/Graphics/SVG/1.1/DTD/svg11.dtd">
<svg xmlns="http://www.w3.org/2000/svg" xmlns:xlink="http://www.w3.org/1999/xlink" version="1.1" width="16" height="16" viewBox="0 0 16 16" xml:space="preserve">
<desc>Created with Fabric.js 4.6.0</desc>
<defs>
</defs>
<g transform="matrix(1.07 0 0 1.07 8 8)" id="lszpBBPOEH1-YQhdf2ZJu"  >
<path style="stroke: rgb(102,109,132); stroke-width: 2; stroke-dasharray: none; stroke-linecap: round; stroke-dashoffset: 0; stroke-linejoin: round; stroke-miterlimit: 4; fill: rgb(244,244,244); fill-rule: nonzero; opacity: 1;" vector-effect="non-scaling-stroke"  transform=" translate(-8, -8)" d="M 7.163962 3.394531 C 7.431819 3.355469 7.711851 3.332031 8 3.332031 C 11.405033 3.332031 13.637175 6.335937 14.387987 7.523437 C 14.477273 7.667969 14.521916 7.738281 14.550325 7.851562 C 14.566559 7.949219 14.566559 8.050781 14.550325 8.148437 C 14.521916 8.257812 14.477273 8.332031 14.387987 8.476562 C 14.185065 8.792968 13.032468 10.460937 11.54302 11.488281 M 7.16802 3.390625 C 4.059254 4.164062 2.062501 6.8125 1.612014 7.523437 C 1.522728 7.667969 1.478085 7.738281 1.453735 7.851562 C 1.433442 7.949219 1.433442 8.050781 1.453735 8.148437 C 1.478085 8.257812 1.522728 8.332031 1.612014 8.476562 C 2.362826 9.664062 4.599027 12.667968 8 12.667968 C 9.371754 12.667968 10.556819 12.179687 11.526786 11.515625 M 6.62013 6.621094 C 8.925325 4.796875 10.938312 8.179687 9.379871 9.414062 M 6.652598 6.652344 C 5.585228 7.761719 6.04789 9.542968 7.541397 9.914062 C 8.211039 10.082031 8.917208 9.894531 9.412338 9.414062" stroke-linecap="round" />
</g>
</svg>