<svg width="54" height="55" viewBox="0 0 54 55" fill="none" xmlns="http://www.w3.org/2000/svg">
    <path d="M12.55 3.212a1.5 1.5 0 1 1 2.988.265l-2.988-.265zm29.092 48.57a1.5 1.5 0 1 1-1.207 2.746l1.207-2.746zM5.497 11.714a1.5 1.5 0 1 1-2.045-2.195l2.045 2.195zm6.752-8.34-1.022-1.097.001-.001 1.021 1.098zm3.766-.012L15.05 4.51l-.001-.001.967-1.146zm9.6 6.132a1.5 1.5 0 1 1-1.933 2.293l1.933-2.293zm-11.571-6.15 1.494.132v.007l-.003.032-.01.138c-.01.124-.021.312-.034.557a47.672 47.672 0 0 0-.057 2.126c-.01 1.823.065 4.393.407 7.362.688 5.962 2.441 13.41 6.636 19.672l-2.492 1.67c-4.569-6.819-6.409-14.8-7.124-20.999a64.78 64.78 0 0 1-.427-7.723c.006-.96.034-1.728.061-2.26a32.003 32.003 0 0 1 .05-.781c0-.02.002-.035.003-.045l.001-.013v-.006l1.495.132zm8.433 30.026c8.604 12.842 17.04 17.478 19.165 18.412l-1.207 2.746c-2.64-1.16-11.526-6.168-20.45-19.488l2.492-1.67zM3.452 9.52l7.775-7.242 2.045 2.195-7.775 7.242-2.045-2.195zm7.776-7.243C12.85.769 15.32.81 16.983 2.216l-1.935 2.292c-.588-.496-1.345-.437-1.777-.035l-2.043-2.197zm5.754-.06 8.633 7.278-1.933 2.293-8.633-7.278 1.933-2.294z" fill="#62CDD9"/>
</svg>
