<svg width="20" height="20" viewBox="0 0 20 20" fill="none" xmlns="http://www.w3.org/2000/svg">
    <path d="M14.167 8.333V6.667a4.167 4.167 0 1 0-8.334 0v1.666M10 12.083v1.667M7.333 17.5h5.334c1.4 0 2.1 0 2.635-.273a2.5 2.5 0 0 0 1.092-1.092c.273-.535.273-1.235.273-2.635v-1.167c0-1.4 0-2.1-.273-2.635a2.5 2.5 0 0 0-1.092-1.092c-.535-.273-1.235-.273-2.635-.273H7.334c-1.4 0-2.1 0-2.635.273a2.5 2.5 0 0 0-1.093 1.092c-.272.535-.272 1.235-.272 2.635V13.5c0 1.4 0 2.1.272 2.635a2.5 2.5 0 0 0 1.093 1.092c.534.273 1.234.273 2.635.273z" stroke="#667085" stroke-width="1.667" stroke-linecap="round" stroke-linejoin="round"/>
</svg>
