<svg width="20" height="20" viewBox="0 0 20 20" fill="none" xmlns="http://www.w3.org/2000/svg">
    <g clip-path="url(#g810uuic9a)">
        <path d="M4.167 11.905c-1.543.68-2.5 1.63-2.5 2.678 0 2.071 3.73 3.75 8.333 3.75 4.602 0 8.333-1.679 8.333-3.75 0-1.049-.957-1.997-2.5-2.678M15 6.667c0 3.386-3.75 5-5 7.5-1.25-2.5-5-4.114-5-7.5a5 5 0 0 1 10 0zm-4.167 0a.833.833 0 1 1-1.666 0 .833.833 0 0 1 1.666 0z" stroke="#4C7D9C" stroke-width="1.667" stroke-linecap="round" stroke-linejoin="round"/>
    </g>
    <defs>
        <clipPath id="g810uuic9a">
            <path fill="#fff" d="M0 0h20v20H0z"/>
        </clipPath>
    </defs>
</svg>
