<svg width="25" height="24" viewBox="0 0 25 24" fill="none" xmlns="http://www.w3.org/2000/svg">
    <g clip-path="url(#0iyowlq5ga)">
        <path d="M7.883 21.75c9.055 0 14.009-7.503 14.009-14.008 0-.211-.005-.427-.014-.638a9.999 9.999 0 0 0 2.455-2.549c-.897.4-1.85.66-2.826.774a4.95 4.95 0 0 0 2.165-2.723A9.898 9.898 0 0 1 20.547 3.8a4.93 4.93 0 0 0-8.394 4.49A13.985 13.985 0 0 1 2.006 3.15 4.93 4.93 0 0 0 3.53 9.72a4.93 4.93 0 0 1-2.231-.614v.06a4.922 4.922 0 0 0 3.95 4.829 4.893 4.893 0 0 1-2.22.084 4.933 4.933 0 0 0 4.597 3.422 9.875 9.875 0 0 1-7.293 2.037 13.969 13.969 0 0 0 7.55 2.212z" fill="#98A2B3"/>
    </g>
    <defs>
        <clipPath id="0iyowlq5ga">
            <path fill="#fff" transform="translate(.333)" d="M0 0h24v24H0z"/>
        </clipPath>
    </defs>
</svg>
