<svg width="20" height="21" viewBox="0 0 20 21" fill="none" xmlns="http://www.w3.org/2000/svg">
    <path d="M18.333 18v-1.667a3.335 3.335 0 0 0-2.5-3.228m-2.916-9.863a3.334 3.334 0 0 1 0 6.182M14.167 18c0-1.553 0-2.33-.254-2.942a3.333 3.333 0 0 0-1.804-1.804C11.496 13 10.719 13 9.167 13h-2.5c-1.554 0-2.33 0-2.943.254a3.334 3.334 0 0 0-1.804 1.804c-.253.612-.253 1.389-.253 2.942M11.25 6.333a3.333 3.333 0 1 1-6.667 0 3.333 3.333 0 0 1 6.667 0z" stroke="#fff" stroke-width="1.667" stroke-linecap="round" stroke-linejoin="round"/>
</svg>
