<svg width="16" height="16" viewBox="0 0 16 16" fill="none" xmlns="http://www.w3.org/2000/svg">
    <path d="M7.333 10h-2c-1.243 0-1.864 0-2.354.203-.653.27-1.172.79-1.443 1.443-.203.49-.203 1.111-.203 2.354m9-11.806A2.668 2.668 0 0 1 12 4.667m-4 9.666 1.35-.27a1.4 1.4 0 0 0 .231-.056.668.668 0 0 0 .138-.074c.048-.034.09-.076.176-.161l4.438-4.439A.943.943 0 0 0 13 8L8.56 12.438c-.085.085-.127.128-.16.176a.666.666 0 0 0-.074.138 1.402 1.402 0 0 0-.057.231L8 14.333zm1-9.666a2.667 2.667 0 1 1-5.334 0 2.667 2.667 0 0 1 5.334 0z" stroke="#344054" stroke-width="1.5" stroke-linecap="round" stroke-linejoin="round"/>
</svg>
